<svg width="123" height="19" viewBox="0 0 123 19" fill="none" xmlns="http://www.w3.org/2000/svg">
<path d="M123 12.1666C123 12.6694 122.911 13.1051 122.732 13.4738C122.564 13.8313 122.324 14.1273 122.011 14.3619C121.698 14.5965 121.33 14.7753 120.905 14.8982C120.492 15.0099 120.045 15.0658 119.565 15.0658C118.928 15.0658 118.274 14.9596 117.604 14.7474C116.945 14.5239 116.313 14.1776 115.71 13.7084L116.799 12.0326C117.291 12.3901 117.777 12.6582 118.257 12.837C118.749 13.0157 119.207 13.1051 119.632 13.1051C120 13.1051 120.268 13.0436 120.436 12.9207C120.615 12.7978 120.704 12.6359 120.704 12.4348V12.4012C120.704 12.2672 120.654 12.1499 120.553 12.0493C120.453 11.9488 120.313 11.865 120.134 11.798C119.967 11.7198 119.771 11.6471 119.548 11.5801C119.324 11.5131 119.09 11.4405 118.844 11.3623C118.531 11.2729 118.213 11.1667 117.889 11.0439C117.576 10.9098 117.291 10.7422 117.034 10.5411C116.777 10.3288 116.565 10.0719 116.397 9.77025C116.241 9.46861 116.163 9.09993 116.163 8.66423V8.63071C116.163 8.17266 116.246 7.77047 116.414 7.42414C116.593 7.06664 116.827 6.76499 117.118 6.51921C117.42 6.27343 117.766 6.08909 118.157 5.9662C118.559 5.84331 118.989 5.78186 119.447 5.78186C120.017 5.78186 120.592 5.87682 121.173 6.06675C121.765 6.2455 122.307 6.49687 122.799 6.82085L121.827 8.58044C121.38 8.32348 120.944 8.12239 120.52 7.97715C120.095 7.82074 119.721 7.74254 119.397 7.74254C119.084 7.74254 118.85 7.80398 118.693 7.92688C118.537 8.0386 118.459 8.18383 118.459 8.36258V8.3961C118.459 8.51899 118.509 8.63071 118.609 8.73126C118.71 8.82063 118.844 8.91001 119.012 8.99938C119.179 9.07759 119.369 9.15579 119.581 9.23399C119.805 9.3122 120.039 9.3904 120.285 9.46861C120.598 9.56915 120.916 9.69204 121.24 9.83728C121.564 9.97134 121.855 10.1389 122.112 10.34C122.369 10.5411 122.581 10.7869 122.749 11.0774C122.916 11.3678 123 11.7198 123 12.1331V12.1666Z" fill="black"/>
<path d="M115.714 10.4238C115.714 11.1723 115.596 11.837 115.362 12.4179C115.138 12.9877 114.837 13.4737 114.457 13.8759C114.088 14.2669 113.658 14.563 113.166 14.7641C112.675 14.9652 112.161 15.0657 111.625 15.0657C110.943 15.0657 110.379 14.9316 109.932 14.6635C109.496 14.3954 109.128 14.0826 108.826 13.7251V17.5794H106.279V5.91587H108.826V7.20623C109.139 6.7817 109.513 6.43537 109.949 6.16724C110.396 5.88794 110.954 5.74829 111.625 5.74829C112.15 5.74829 112.658 5.84884 113.15 6.04993C113.641 6.25103 114.077 6.55267 114.457 6.95486C114.837 7.34588 115.138 7.83186 115.362 8.4128C115.596 8.98257 115.714 9.64172 115.714 10.3902V10.4238ZM113.166 10.4238V10.3902C113.166 10.0216 113.105 9.6864 112.982 9.38476C112.87 9.07195 112.714 8.80941 112.513 8.59714C112.312 8.3737 112.077 8.20612 111.809 8.0944C111.552 7.97151 111.273 7.91006 110.971 7.91006C110.669 7.91006 110.385 7.97151 110.116 8.0944C109.859 8.20612 109.63 8.3737 109.429 8.59714C109.239 8.80941 109.083 9.07195 108.96 9.38476C108.848 9.6864 108.793 10.0216 108.793 10.3902V10.4238C108.793 10.7924 108.848 11.1332 108.96 11.446C109.083 11.7476 109.239 12.0102 109.429 12.2336C109.63 12.4459 109.859 12.6135 110.116 12.7363C110.385 12.8481 110.669 12.9039 110.971 12.9039C111.273 12.9039 111.552 12.8481 111.809 12.7363C112.077 12.6135 112.312 12.4459 112.513 12.2336C112.714 12.0102 112.87 11.7476 112.982 11.446C113.105 11.1443 113.166 10.8036 113.166 10.4238Z" fill="black"/>
<path d="M105.428 5.6394H102.747V3.37708H105.428V5.6394ZM105.361 14.8981H102.814V6.51919H105.361V14.8981Z" fill="black"/>
<path d="M101.977 8.41284H101.842C100.993 8.41284 100.323 8.6698 99.8315 9.18371C99.3511 9.69762 99.1109 10.4964 99.1109 11.5801V14.8982H96.5637V5.91591H99.1109V7.72577C99.3679 7.11131 99.7198 6.61974 100.167 6.25107C100.614 5.88239 101.217 5.71481 101.977 5.74833V8.41284Z" fill="black"/>
<path d="M96.0204 5.7567H92.4509V14.8982H89.8702V5.7567H86.3008V3.37708H96.0204V5.7567Z" fill="black"/>
<path d="M85.4835 14.8981H82.9363L82.9363 3.37708H85.4835V14.8981Z" fill="black"/>
<path d="M81.8 14.8981H79.3366V13.9261C79.0238 14.2725 78.6495 14.5518 78.2138 14.764C77.7781 14.9651 77.2474 15.0657 76.6218 15.0657C76.1973 15.0657 75.7951 15.0098 75.4152 14.8981C75.0465 14.7752 74.7226 14.5965 74.4433 14.3619C74.164 14.1272 73.9405 13.8424 73.7729 13.5072C73.6165 13.1609 73.5383 12.7643 73.5383 12.3174V12.2839C73.5383 11.7923 73.6277 11.3678 73.8065 11.0103C73.9852 10.6528 74.231 10.3567 74.5438 10.1221C74.8678 9.88749 75.2476 9.71432 75.6833 9.6026C76.1302 9.47971 76.6218 9.41826 77.158 9.41826C77.6161 9.41826 78.0127 9.45178 78.3479 9.51881C78.6942 9.58584 79.0293 9.67522 79.3533 9.78694V9.63612C79.3533 9.09986 79.1913 8.69209 78.8674 8.41279C78.5434 8.13349 78.063 7.99384 77.4262 7.99384C76.9346 7.99384 76.4989 8.03853 76.1191 8.1279C75.7504 8.20611 75.3594 8.32341 74.946 8.47982L74.3092 6.5359C74.8008 6.32363 75.3147 6.15047 75.8509 6.0164C76.3872 5.88234 77.0352 5.81531 77.7948 5.81531C79.1913 5.81531 80.208 6.15605 80.8448 6.83754C81.4816 7.51903 81.8 8.46865 81.8 9.68639V14.8981ZM79.3868 11.7309V11.2784C79.1634 11.1778 78.912 11.0996 78.6327 11.0438C78.3646 10.9768 78.0741 10.9432 77.7613 10.9432C77.2139 10.9432 76.7838 11.0494 76.471 11.2616C76.1582 11.4739 76.0017 11.7811 76.0017 12.1833V12.2168C76.0017 12.5632 76.1302 12.8313 76.3872 13.0212C76.6441 13.2111 76.9793 13.3061 77.3927 13.3061C77.9959 13.3061 78.4763 13.1609 78.8338 12.8704C79.2025 12.5799 79.3868 12.2001 79.3868 11.7309Z" fill="black"/>
<path d="M72.9227 5.6394H70.2415V3.37708H72.9227V5.6394ZM72.8557 14.8981H70.3085V6.51919H72.8557V14.8981Z" fill="black"/>
<path d="M69.7002 13.4569C69.2645 13.9373 68.7673 14.3339 68.2087 14.6468C67.6501 14.9484 66.924 15.0992 66.0302 15.0992C65.3599 15.0992 64.7343 14.9763 64.1533 14.7305C63.5835 14.4848 63.092 14.1552 62.6786 13.7418C62.2653 13.3173 61.9413 12.8257 61.7067 12.2671C61.472 11.6974 61.3547 11.0941 61.3547 10.4573V10.4238C61.3547 9.78695 61.472 9.18367 61.7067 8.6139C61.9413 8.04413 62.2653 7.54698 62.6786 7.12244C63.092 6.69791 63.5835 6.36275 64.1533 6.11696C64.7343 5.87118 65.3711 5.74829 66.0637 5.74829C66.9128 5.74829 67.6166 5.88235 68.1752 6.15048C68.7338 6.41861 69.2254 6.78728 69.6499 7.2565L68.0914 8.9323C67.801 8.63066 67.4993 8.39046 67.1865 8.21171C66.8849 8.03296 66.505 7.94358 66.047 7.94358C65.723 7.94358 65.4269 8.01061 65.1588 8.14467C64.9018 8.26757 64.6728 8.44073 64.4717 8.66417C64.2818 8.88761 64.131 9.15015 64.0192 9.45179C63.9187 9.74226 63.8684 10.0551 63.8684 10.3902V10.4238C63.8684 10.7701 63.9187 11.0941 64.0192 11.3957C64.131 11.6974 64.2874 11.9599 64.4885 12.1833C64.6896 12.4068 64.9298 12.5855 65.2091 12.7196C65.4884 12.8425 65.8012 12.9039 66.1475 12.9039C66.572 12.9039 66.9407 12.8201 67.2535 12.6526C67.5775 12.4738 67.8959 12.2392 68.2087 11.9487L69.7002 13.4569Z" fill="black"/>
<path d="M61.0652 10.6584C61.0652 10.7813 61.0596 10.8874 61.0484 10.9768C61.0484 11.0661 61.0428 11.1723 61.0316 11.2952H54.7809C54.9038 11.8761 55.1552 12.3174 55.535 12.619C55.9261 12.9095 56.4065 13.0547 56.9762 13.0547C57.4008 13.0547 57.7806 12.9821 58.1158 12.8369C58.4509 12.6917 58.7973 12.457 59.1548 12.1331L60.6127 13.4234C60.1882 13.9485 59.6743 14.3619 59.071 14.6635C58.4677 14.954 57.7583 15.0992 56.9427 15.0992C56.2724 15.0992 55.6468 14.9875 55.0658 14.7641C54.4961 14.5406 53.9989 14.2222 53.5744 13.8089C53.161 13.3955 52.837 12.9095 52.6024 12.3509C52.3678 11.7811 52.2505 11.1499 52.2505 10.4573V10.4238C52.2505 9.78695 52.3566 9.18367 52.5689 8.6139C52.7923 8.04413 53.0996 7.54698 53.4906 7.12244C53.8816 6.69791 54.3452 6.36275 54.8815 6.11696C55.4289 5.87118 56.0322 5.74829 56.6913 5.74829C57.4399 5.74829 58.0878 5.88235 58.6353 6.15048C59.1827 6.41861 59.6352 6.7817 59.9927 7.23975C60.3613 7.68662 60.6295 8.20612 60.797 8.79823C60.9758 9.37918 61.0652 9.98805 61.0652 10.6248V10.6584ZM58.585 9.70316C58.5068 9.13339 58.3057 8.67534 57.9817 8.32901C57.6577 7.97151 57.2276 7.79276 56.6913 7.79276C56.1551 7.79276 55.7194 7.96592 55.3842 8.31225C55.0602 8.65859 54.848 9.12222 54.7474 9.70316H58.585Z" fill="black"/>
<path d="M51.9857 10.4238C51.9857 11.1723 51.8684 11.837 51.6338 12.4179C51.4104 12.9877 51.1087 13.4737 50.7289 13.8759C50.3602 14.2669 49.9301 14.563 49.4385 14.7641C48.947 14.9652 48.4331 15.0657 47.8968 15.0657C47.2153 15.0657 46.6511 14.9316 46.2043 14.6635C45.7685 14.3954 45.3999 14.0826 45.0982 13.7251V17.5794H42.551V5.91587H45.0982V7.20623C45.411 6.7817 45.7853 6.43537 46.221 6.16724C46.6679 5.88794 47.2265 5.74829 47.8968 5.74829C48.4219 5.74829 48.9302 5.84884 49.4218 6.04993C49.9133 6.25103 50.3491 6.55267 50.7289 6.95486C51.1087 7.34588 51.4104 7.83186 51.6338 8.4128C51.8684 8.98257 51.9857 9.64172 51.9857 10.3902V10.4238ZM49.4385 10.4238V10.3902C49.4385 10.0216 49.3771 9.6864 49.2542 9.38476C49.1425 9.07195 48.9861 8.80941 48.785 8.59714C48.5839 8.3737 48.3493 8.20612 48.0811 8.0944C47.8242 7.97151 47.5449 7.91006 47.2432 7.91006C46.9416 7.91006 46.6567 7.97151 46.3886 8.0944C46.1316 8.20612 45.9026 8.3737 45.7015 8.59714C45.5116 8.80941 45.3552 9.07195 45.2323 9.38476C45.1206 9.6864 45.0647 10.0216 45.0647 10.3902V10.4238C45.0647 10.7924 45.1206 11.1332 45.2323 11.446C45.3552 11.7476 45.5116 12.0102 45.7015 12.2336C45.9026 12.4459 46.1316 12.6135 46.3886 12.7363C46.6567 12.8481 46.9416 12.9039 47.2432 12.9039C47.5449 12.9039 47.8242 12.8481 48.0811 12.7363C48.3493 12.6135 48.5839 12.4459 48.785 12.2336C48.9861 12.0102 49.1425 11.7476 49.2542 11.446C49.3771 11.1443 49.4385 10.8036 49.4385 10.4238Z" fill="black"/>
<path d="M41.7524 11.4292C41.7524 12.0102 41.6463 12.5297 41.434 12.9877C41.2217 13.4346 40.9257 13.8145 40.5458 14.1273C40.166 14.4289 39.7135 14.6635 39.1884 14.8311C38.6634 14.9875 38.0824 15.0657 37.4456 15.0657C36.5519 15.0657 35.6749 14.9149 34.8146 14.6132C33.9544 14.3004 33.1723 13.8256 32.4685 13.1888L33.9935 11.3622C34.5297 11.7979 35.0772 12.1442 35.6358 12.4012C36.2055 12.6582 36.8256 12.7866 37.4959 12.7866C38.0321 12.7866 38.4455 12.6917 38.736 12.5017C39.0376 12.3007 39.1884 12.0269 39.1884 11.6806V11.6471C39.1884 11.4795 39.1549 11.3343 39.0879 11.2114C39.032 11.0773 38.9147 10.9544 38.736 10.8427C38.5684 10.731 38.3282 10.6193 38.0154 10.5076C37.7137 10.3958 37.3171 10.2785 36.8256 10.1556C36.2335 10.0104 35.6972 9.84841 35.2168 9.66966C34.7364 9.49091 34.3286 9.27305 33.9935 9.0161C33.6583 8.74797 33.3958 8.4184 33.2059 8.02738C33.0271 7.63636 32.9377 7.15038 32.9377 6.56944V6.53592C32.9377 5.99967 33.0383 5.51928 33.2394 5.09474C33.4405 4.65904 33.7198 4.28478 34.0773 3.97196C34.4459 3.65915 34.8816 3.41895 35.3844 3.25137C35.8871 3.08379 36.4401 3 37.0434 3C37.9037 3 38.6913 3.12848 39.4063 3.38543C40.1325 3.64239 40.7972 4.01106 41.4005 4.49146L40.0598 6.43538C39.5348 6.07787 39.0209 5.79858 38.5181 5.59748C38.0154 5.38521 37.5126 5.27908 37.0099 5.27908C36.5072 5.27908 36.1273 5.37963 35.8704 5.58072C35.6246 5.77064 35.5017 6.01084 35.5017 6.30131V6.33483C35.5017 6.52475 35.5352 6.69233 35.6022 6.83757C35.6804 6.97163 35.8145 7.09452 36.0044 7.20624C36.1944 7.31796 36.4513 7.42409 36.7753 7.52464C37.1105 7.62519 37.5294 7.7425 38.0321 7.87656C38.6243 8.03297 39.1493 8.21172 39.6074 8.41281C40.0766 8.60274 40.4676 8.83735 40.7804 9.11665C41.1044 9.38477 41.3446 9.70317 41.501 10.0718C41.6686 10.4405 41.7524 10.8818 41.7524 11.3957V11.4292Z" fill="black"/>
<rect x="0.523685" y="1.78553" width="2.61843" height="15.1869" fill="black" stroke="black" stroke-width="1.04737"/>
<path d="M11.2163 17.7549C6.61247 17.7547 2.88037 14.0035 2.88037 9.37695C2.88054 4.75057 6.61257 1.00018 11.2163 1V17.7549Z" fill="black"/>
<path d="M11.2163 17.7549C6.61247 17.7547 2.88037 14.0035 2.88037 9.37695C2.88054 4.75057 6.61257 1.00018 11.2163 1V17.7549Z" stroke="black"/>
<path d="M22.2042 9.37895C22.2042 7.52792 20.7036 6.02737 18.8526 6.02737C17.0016 6.02737 15.501 7.52792 15.501 9.37895C15.501 11.23 17.0016 12.7305 18.8526 12.7305V17.7579C14.225 17.7579 10.4736 14.0065 10.4736 9.37895C10.4736 4.75138 14.225 1 18.8526 1C23.4801 1 27.2315 4.75138 27.2315 9.37895C27.2315 14.0065 23.4801 17.7579 18.8526 17.7579V12.7305C20.7036 12.7305 22.2042 11.23 22.2042 9.37895Z" fill="black"/>
</svg>
