<svg width="123" height="17" viewBox="0 0 123 17" fill="none" xmlns="http://www.w3.org/2000/svg">
<rect width="123" height="17" fill="white"/>
<path d="M123 11.1666C123 11.6694 122.911 12.1051 122.732 12.4738C122.564 12.8313 122.324 13.1273 122.011 13.3619C121.698 13.5965 121.33 13.7753 120.905 13.8982C120.492 14.0099 120.045 14.0658 119.565 14.0658C118.928 14.0658 118.274 13.9596 117.604 13.7474C116.945 13.5239 116.313 13.1776 115.71 12.7084L116.799 11.0326C117.291 11.3901 117.777 11.6582 118.257 11.837C118.749 12.0157 119.207 12.1051 119.632 12.1051C120 12.1051 120.268 12.0436 120.436 11.9207C120.615 11.7978 120.704 11.6359 120.704 11.4348V11.4012C120.704 11.2672 120.654 11.1499 120.553 11.0493C120.453 10.9488 120.313 10.865 120.134 10.798C119.967 10.7198 119.771 10.6471 119.548 10.5801C119.324 10.5131 119.09 10.4405 118.844 10.3623C118.531 10.2729 118.213 10.1667 117.889 10.0439C117.576 9.90979 117.291 9.74221 117.034 9.54111C116.777 9.32885 116.565 9.07189 116.397 8.77025C116.241 8.46861 116.163 8.09993 116.163 7.66423V7.63071C116.163 7.17266 116.246 6.77047 116.414 6.42414C116.593 6.06664 116.827 5.76499 117.118 5.51921C117.42 5.27343 117.766 5.08909 118.157 4.9662C118.559 4.84331 118.989 4.78186 119.447 4.78186C120.017 4.78186 120.592 4.87682 121.173 5.06675C121.765 5.2455 122.307 5.49687 122.799 5.82085L121.827 7.58044C121.38 7.32348 120.944 7.12239 120.52 6.97715C120.095 6.82074 119.721 6.74254 119.397 6.74254C119.084 6.74254 118.85 6.80398 118.693 6.92688C118.537 7.0386 118.459 7.18383 118.459 7.36258V7.3961C118.459 7.51899 118.509 7.63071 118.609 7.73126C118.71 7.82063 118.844 7.91001 119.012 7.99938C119.179 8.07759 119.369 8.15579 119.581 8.23399C119.805 8.3122 120.039 8.3904 120.285 8.46861C120.598 8.56915 120.916 8.69204 121.24 8.83728C121.564 8.97134 121.855 9.13892 122.112 9.34002C122.369 9.54111 122.581 9.7869 122.749 10.0774C122.916 10.3678 123 10.7198 123 11.1331V11.1666Z" fill="black"/>
<path d="M115.714 9.42375C115.714 10.1723 115.596 10.837 115.362 11.4179C115.138 11.9877 114.837 12.4737 114.457 12.8759C114.088 13.2669 113.658 13.563 113.166 13.7641C112.675 13.9652 112.161 14.0657 111.625 14.0657C110.943 14.0657 110.379 13.9316 109.932 13.6635C109.496 13.3954 109.128 13.0826 108.826 12.7251V16.5794H106.279V4.91587H108.826V6.20623C109.139 5.7817 109.513 5.43537 109.949 5.16724C110.396 4.88794 110.954 4.74829 111.625 4.74829C112.15 4.74829 112.658 4.84884 113.15 5.04993C113.641 5.25103 114.077 5.55267 114.457 5.95486C114.837 6.34588 115.138 6.83186 115.362 7.4128C115.596 7.98257 115.714 8.64172 115.714 9.39024V9.42375ZM113.166 9.42375V9.39024C113.166 9.02156 113.105 8.6864 112.982 8.38476C112.87 8.07195 112.714 7.80941 112.513 7.59714C112.312 7.3737 112.077 7.20612 111.809 7.0944C111.552 6.97151 111.273 6.91006 110.971 6.91006C110.669 6.91006 110.385 6.97151 110.116 7.0944C109.859 7.20612 109.63 7.3737 109.429 7.59714C109.239 7.80941 109.083 8.07195 108.96 8.38476C108.848 8.6864 108.793 9.02156 108.793 9.39024V9.42375C108.793 9.79243 108.848 10.1332 108.96 10.446C109.083 10.7476 109.239 11.0102 109.429 11.2336C109.63 11.4459 109.859 11.6135 110.116 11.7363C110.385 11.8481 110.669 11.9039 110.971 11.9039C111.273 11.9039 111.552 11.8481 111.809 11.7363C112.077 11.6135 112.312 11.4459 112.513 11.2336C112.714 11.0102 112.87 10.7476 112.982 10.446C113.105 10.1443 113.166 9.8036 113.166 9.42375Z" fill="black"/>
<path d="M105.428 4.6394H102.747V2.37708H105.428V4.6394ZM105.361 13.8981H102.814V5.51919H105.361V13.8981Z" fill="black"/>
<path d="M101.977 7.41284H101.842C100.993 7.41284 100.323 7.6698 99.8315 8.18371C99.3511 8.69762 99.1109 9.49641 99.1109 10.5801V13.8982H96.5637V4.91591H99.1109V6.72577C99.3679 6.11131 99.7198 5.61974 100.167 5.25107C100.614 4.88239 101.217 4.71481 101.977 4.74833V7.41284Z" fill="black"/>
<path d="M96.0204 4.7567H92.4509V13.8982H89.8702V4.7567H86.3008V2.37708H96.0204V4.7567Z" fill="black"/>
<path d="M85.4835 13.8981H82.9363L82.9363 2.37708H85.4835V13.8981Z" fill="black"/>
<path d="M81.8 13.8981H79.3366V12.9261C79.0238 13.2725 78.6495 13.5518 78.2138 13.764C77.7781 13.9651 77.2474 14.0657 76.6218 14.0657C76.1973 14.0657 75.7951 14.0098 75.4152 13.8981C75.0465 13.7752 74.7226 13.5965 74.4433 13.3619C74.164 13.1272 73.9405 12.8424 73.7729 12.5072C73.6165 12.1609 73.5383 11.7643 73.5383 11.3174V11.2839C73.5383 10.7923 73.6277 10.3678 73.8065 10.0103C73.9852 9.65277 74.231 9.35671 74.5438 9.1221C74.8678 8.88749 75.2476 8.71432 75.6833 8.6026C76.1302 8.47971 76.6218 8.41826 77.158 8.41826C77.6161 8.41826 78.0127 8.45178 78.3479 8.51881C78.6942 8.58584 79.0293 8.67522 79.3533 8.78694V8.63612C79.3533 8.09986 79.1913 7.69209 78.8674 7.41279C78.5434 7.13349 78.063 6.99384 77.4262 6.99384C76.9346 6.99384 76.4989 7.03853 76.1191 7.1279C75.7504 7.20611 75.3594 7.32341 74.946 7.47982L74.3092 5.5359C74.8008 5.32363 75.3147 5.15047 75.8509 5.0164C76.3872 4.88234 77.0352 4.81531 77.7948 4.81531C79.1913 4.81531 80.208 5.15605 80.8448 5.83754C81.4816 6.51903 81.8 7.46865 81.8 8.68639V13.8981ZM79.3868 10.7309V10.2784C79.1634 10.1778 78.912 10.0996 78.6327 10.0438C78.3646 9.97675 78.0741 9.94324 77.7613 9.94324C77.2139 9.94324 76.7838 10.0494 76.471 10.2616C76.1582 10.4739 76.0017 10.7811 76.0017 11.1833V11.2168C76.0017 11.5632 76.1302 11.8313 76.3872 12.0212C76.6441 12.2111 76.9793 12.3061 77.3927 12.3061C77.9959 12.3061 78.4763 12.1609 78.8338 11.8704C79.2025 11.5799 79.3868 11.2001 79.3868 10.7309Z" fill="black"/>
<path d="M72.9227 4.6394H70.2415V2.37708H72.9227V4.6394ZM72.8557 13.8981H70.3085V5.51919H72.8557V13.8981Z" fill="black"/>
<path d="M69.7002 12.4569C69.2645 12.9373 68.7673 13.3339 68.2087 13.6468C67.6501 13.9484 66.924 14.0992 66.0302 14.0992C65.3599 14.0992 64.7343 13.9763 64.1533 13.7305C63.5835 13.4848 63.092 13.1552 62.6786 12.7418C62.2653 12.3173 61.9413 11.8257 61.7067 11.2671C61.472 10.6974 61.3547 10.0941 61.3547 9.45727V9.42375C61.3547 8.78695 61.472 8.18367 61.7067 7.6139C61.9413 7.04413 62.2653 6.54698 62.6786 6.12244C63.092 5.69791 63.5835 5.36275 64.1533 5.11696C64.7343 4.87118 65.3711 4.74829 66.0637 4.74829C66.9128 4.74829 67.6166 4.88235 68.1752 5.15048C68.7338 5.41861 69.2254 5.78728 69.6499 6.2565L68.0914 7.9323C67.801 7.63066 67.4993 7.39046 67.1865 7.21171C66.8849 7.03296 66.505 6.94358 66.047 6.94358C65.723 6.94358 65.4269 7.01061 65.1588 7.14467C64.9018 7.26757 64.6728 7.44073 64.4717 7.66417C64.2818 7.88761 64.131 8.15015 64.0192 8.45179C63.9187 8.74226 63.8684 9.05508 63.8684 9.39024V9.42375C63.8684 9.77008 63.9187 10.0941 64.0192 10.3957C64.131 10.6974 64.2874 10.9599 64.4885 11.1833C64.6896 11.4068 64.9298 11.5855 65.2091 11.7196C65.4884 11.8425 65.8012 11.9039 66.1475 11.9039C66.572 11.9039 66.9407 11.8201 67.2535 11.6526C67.5775 11.4738 67.8959 11.2392 68.2087 10.9487L69.7002 12.4569Z" fill="black"/>
<path d="M61.0652 9.65836C61.0652 9.78126 61.0596 9.88739 61.0484 9.97677C61.0484 10.0661 61.0428 10.1723 61.0316 10.2952H54.7809C54.9038 10.8761 55.1552 11.3174 55.535 11.619C55.9261 11.9095 56.4065 12.0547 56.9762 12.0547C57.4008 12.0547 57.7806 11.9821 58.1158 11.8369C58.4509 11.6917 58.7973 11.457 59.1548 11.1331L60.6127 12.4234C60.1882 12.9485 59.6743 13.3619 59.071 13.6635C58.4677 13.954 57.7583 14.0992 56.9427 14.0992C56.2724 14.0992 55.6468 13.9875 55.0658 13.7641C54.4961 13.5406 53.9989 13.2222 53.5744 12.8089C53.161 12.3955 52.837 11.9095 52.6024 11.3509C52.3678 10.7811 52.2505 10.1499 52.2505 9.45727V9.42375C52.2505 8.78695 52.3566 8.18367 52.5689 7.6139C52.7923 7.04413 53.0996 6.54698 53.4906 6.12244C53.8816 5.69791 54.3452 5.36275 54.8815 5.11696C55.4289 4.87118 56.0322 4.74829 56.6913 4.74829C57.4399 4.74829 58.0878 4.88235 58.6353 5.15048C59.1827 5.41861 59.6352 5.7817 59.9927 6.23975C60.3613 6.68662 60.6295 7.20612 60.797 7.79823C60.9758 8.37918 61.0652 8.98805 61.0652 9.62485V9.65836ZM58.585 8.70316C58.5068 8.13339 58.3057 7.67534 57.9817 7.32901C57.6577 6.97151 57.2276 6.79276 56.6913 6.79276C56.1551 6.79276 55.7194 6.96592 55.3842 7.31225C55.0602 7.65859 54.848 8.12222 54.7474 8.70316H58.585Z" fill="black"/>
<path d="M51.9857 9.42375C51.9857 10.1723 51.8684 10.837 51.6338 11.4179C51.4104 11.9877 51.1087 12.4737 50.7289 12.8759C50.3602 13.2669 49.9301 13.563 49.4385 13.7641C48.947 13.9652 48.4331 14.0657 47.8968 14.0657C47.2153 14.0657 46.6511 13.9316 46.2043 13.6635C45.7685 13.3954 45.3999 13.0826 45.0982 12.7251V16.5794H42.551V4.91587H45.0982V6.20623C45.411 5.7817 45.7853 5.43537 46.221 5.16724C46.6679 4.88794 47.2265 4.74829 47.8968 4.74829C48.4219 4.74829 48.9302 4.84884 49.4218 5.04993C49.9133 5.25103 50.3491 5.55267 50.7289 5.95486C51.1087 6.34588 51.4104 6.83186 51.6338 7.4128C51.8684 7.98257 51.9857 8.64172 51.9857 9.39024V9.42375ZM49.4385 9.42375V9.39024C49.4385 9.02156 49.3771 8.6864 49.2542 8.38476C49.1425 8.07195 48.9861 7.80941 48.785 7.59714C48.5839 7.3737 48.3493 7.20612 48.0811 7.0944C47.8242 6.97151 47.5449 6.91006 47.2432 6.91006C46.9416 6.91006 46.6567 6.97151 46.3886 7.0944C46.1316 7.20612 45.9026 7.3737 45.7015 7.59714C45.5116 7.80941 45.3552 8.07195 45.2323 8.38476C45.1206 8.6864 45.0647 9.02156 45.0647 9.39024V9.42375C45.0647 9.79243 45.1206 10.1332 45.2323 10.446C45.3552 10.7476 45.5116 11.0102 45.7015 11.2336C45.9026 11.4459 46.1316 11.6135 46.3886 11.7363C46.6567 11.8481 46.9416 11.9039 47.2432 11.9039C47.5449 11.9039 47.8242 11.8481 48.0811 11.7363C48.3493 11.6135 48.5839 11.4459 48.785 11.2336C48.9861 11.0102 49.1425 10.7476 49.2542 10.446C49.3771 10.1443 49.4385 9.8036 49.4385 9.42375Z" fill="black"/>
<path d="M41.7524 10.4292C41.7524 11.0102 41.6463 11.5297 41.434 11.9877C41.2217 12.4346 40.9257 12.8145 40.5458 13.1273C40.166 13.4289 39.7135 13.6635 39.1884 13.8311C38.6634 13.9875 38.0824 14.0657 37.4456 14.0657C36.5519 14.0657 35.6749 13.9149 34.8146 13.6132C33.9544 13.3004 33.1723 12.8256 32.4685 12.1888L33.9935 10.3622C34.5297 10.7979 35.0772 11.1442 35.6358 11.4012C36.2055 11.6582 36.8256 11.7866 37.4959 11.7866C38.0321 11.7866 38.4455 11.6917 38.736 11.5017C39.0376 11.3007 39.1884 11.0269 39.1884 10.6806V10.6471C39.1884 10.4795 39.1549 10.3343 39.0879 10.2114C39.032 10.0773 38.9147 9.95443 38.736 9.84271C38.5684 9.73099 38.3282 9.61927 38.0154 9.50755C37.7137 9.39583 37.3171 9.27853 36.8256 9.15564C36.2335 9.0104 35.6972 8.84841 35.2168 8.66966C34.7364 8.49091 34.3286 8.27305 33.9935 8.0161C33.6583 7.74797 33.3958 7.4184 33.2059 7.02738C33.0271 6.63636 32.9377 6.15038 32.9377 5.56944V5.53592C32.9377 4.99967 33.0383 4.51928 33.2394 4.09474C33.4405 3.65904 33.7198 3.28478 34.0773 2.97196C34.4459 2.65915 34.8816 2.41895 35.3844 2.25137C35.8871 2.08379 36.4401 2 37.0434 2C37.9037 2 38.6913 2.12848 39.4063 2.38543C40.1325 2.64239 40.7972 3.01106 41.4005 3.49146L40.0598 5.43538C39.5348 5.07787 39.0209 4.79858 38.5181 4.59748C38.0154 4.38521 37.5126 4.27908 37.0099 4.27908C36.5072 4.27908 36.1273 4.37963 35.8704 4.58072C35.6246 4.77064 35.5017 5.01084 35.5017 5.30131V5.33483C35.5017 5.52475 35.5352 5.69233 35.6022 5.83757C35.6804 5.97163 35.8145 6.09452 36.0044 6.20624C36.1944 6.31796 36.4513 6.42409 36.7753 6.52464C37.1105 6.62519 37.5294 6.7425 38.0321 6.87656C38.6243 7.03297 39.1493 7.21172 39.6074 7.41281C40.0766 7.60274 40.4676 7.83735 40.7804 8.11665C41.1044 8.38477 41.3446 8.70317 41.501 9.07185C41.6686 9.44052 41.7524 9.88181 41.7524 10.3957V10.4292Z" fill="black"/>
<rect x="0.523685" y="0.785526" width="2.61843" height="15.1869" fill="black" stroke="black" stroke-width="1.04737"/>
<path d="M11.2163 16.7549C6.61247 16.7547 2.88037 13.0035 2.88037 8.37695C2.88054 3.75057 6.61257 0.000175238 11.2163 0V16.7549Z" fill="black"/>
<path d="M11.2163 16.7549C6.61247 16.7547 2.88037 13.0035 2.88037 8.37695C2.88054 3.75057 6.61257 0.000175238 11.2163 0V16.7549Z" stroke="black"/>
<path d="M22.2042 8.37895C22.2042 6.52792 20.7036 5.02737 18.8526 5.02737C17.0016 5.02737 15.501 6.52792 15.501 8.37895C15.501 10.23 17.0016 11.7305 18.8526 11.7305V16.7579C14.225 16.7579 10.4736 13.0065 10.4736 8.37895C10.4736 3.75138 14.225 0 18.8526 0C23.4801 0 27.2315 3.75138 27.2315 8.37895C27.2315 13.0065 23.4801 16.7579 18.8526 16.7579V11.7305C20.7036 11.7305 22.2042 10.23 22.2042 8.37895Z" fill="black"/>
</svg>
